<?xml version="1.0" encoding="UTF-8" standalone="no"?>
<!-- Creator: CorelDRAW -->
<svg
   xmlns:dc="http://purl.org/dc/elements/1.1/"
   xmlns:cc="http://web.resource.org/cc/"
   xmlns:rdf="http://www.w3.org/1999/02/22-rdf-syntax-ns#"
   xmlns:svg="http://www.w3.org/2000/svg"
   xmlns="http://www.w3.org/2000/svg"
   xmlns:sodipodi="http://sodipodi.sourceforge.net/DTD/sodipodi-0.dtd"
   xmlns:inkscape="http://www.inkscape.org/namespaces/inkscape"
   xml:space="preserve"
   width="577.12744"
   height="129.80534"
   shape-rendering="geometricPrecision"
   text-rendering="geometricPrecision"
   image-rendering="optimizeQuality"
   fill-rule="evenodd"
   clip-rule="evenodd"
   viewBox="0 0 185 261.643"
   id="svg3332"
   sodipodi:version="0.32"
   inkscape:version="0.44"
   sodipodi:docname="EPSON.svg"
   sodipodi:docbase="C:\Dokumente und Einstellungen\Andreas\Eigene Dateien\Eigene Bilder\sonstiges\Logos\Vektor"
   version="1.0"><metadata
   id="metadata3353"><rdf:RDF><cc:Work
       rdf:about=""><dc:format>image/svg+xml</dc:format><dc:type
         rdf:resource="http://purl.org/dc/dcmitype/StillImage" /></cc:Work></rdf:RDF></metadata><defs
   id="defs3351" /><sodipodi:namedview
   inkscape:window-height="574"
   inkscape:window-width="904"
   inkscape:pageshadow="2"
   inkscape:pageopacity="0.0"
   guidetolerance="10.0"
   gridtolerance="10.0"
   objecttolerance="10.0"
   borderopacity="1.0"
   bordercolor="#666666"
   pagecolor="#ffffff"
   id="base"
   inkscape:zoom="1.2494053"
   inkscape:cx="327.02757"
   inkscape:cy="67.322838"
   inkscape:window-x="92"
   inkscape:window-y="92"
   inkscape:current-layer="svg3332" />
 <g
   id="Ebene_x0020_1"
   transform="matrix(6.551209,0,0,6.551209,-505.671,-34.10859)">
  <metadata
   id="CorelCorpID_0Corel-Layer" />
  <path
   d="M 116.413,5.92432 C 105.5755,5.92432 99.3209,14.04591 99.3209,25.17492 C 99.3209,36.30512 105.57557,44.42672 116.413,44.42672 C 127.25,44.42672 133.5065,36.30513 133.5065,25.17492 C 133.5065,14.04592 127.25006,5.92432 116.413,5.92432 L 116.413,5.92432 z M 116.413,37.95032 C 109.53056,37.95032 106.87581,31.61337 106.87581,25.17492 C 106.87581,18.73639 109.53056,12.39942 116.413,12.39942 C 123.29667,12.39942 125.95151,18.73637 125.95151,25.17492 C 125.95151,31.61336 123.29667,37.95032 116.413,37.95032 z "
   id="path3336"
   style="fill:#084da5;fill-rule:nonzero" />
  <polygon
   points="5.71421,7.00287 32.8766,7.00287 32.8766,13.481 13.2722,13.481 13.2722,21.5414 31.5553,21.5414 31.5553,27.8589 13.2722,27.8589 13.2722,36.8687 32.8766,36.8687 32.8766,43.3468 5.71421,43.3468 5.71421,7.00287 "
   id="polygon3338"
   style="fill:#084da5;fill-rule:nonzero" />
  <path
   d="M 36.1148,43.3468 L 43.66976,43.3468 L 43.66976,32.4443 L 50.51555,32.4443 C 59.76432,32.4443 65.97935,27.89506 65.97935,19.7235 C 65.97935,11.55161 59.76432,7.0028 50.51555,7.0028 L 36.11475,7.0028 L 36.11475,43.3468 L 36.1148,43.3468 z M 50.5156,25.9692 L 43.66981,25.9692 L 43.66981,13.4779 L 50.5156,13.4779 C 55.26508,13.4779 58.42444,15.54629 58.42444,19.7235 C 58.42444,23.90036 55.26508,25.96919 50.5156,25.96919 L 50.5156,25.9692 z "
   id="path3340"
   style="fill:#084da5;fill-rule:nonzero" />
  <path
   d="M 144.124,7.00287 L 136.36404,7.00287 L 136.36404,43.34687 L 143.76748,43.34687 L 143.76748,28.62447 C 143.76748,24.59922 143.62151,21.0222 143.48628,17.86277 C 144.35992,19.68106 147.00692,25.14904 148.23875,27.20236 L 157.87628,43.34686 L 165.63192,43.34686 L 165.63192,7.00286 L 158.22892,7.00286 L 158.22892,21.35926 C 158.22892,25.38275 158.37445,29.3288 158.51135,32.48696 C 157.63648,30.67 154.98728,25.20192 153.75544,23.14869 L 144.12399,7.00289 L 144.124,7.00287 z "
   id="path3342"
   style="fill:#084da5;fill-rule:nonzero" />
  <path
   d="M 74.5599,31.3219 C 74.5599,36.20652 78.62303,38.10955 82.9441,38.10955 C 85.7694,38.10955 90.34877,37.2863 90.34877,33.53318 C 90.34877,29.57339 84.74856,28.82634 79.34897,27.38616 C 73.68506,25.89039 68.23807,23.76219 68.23807,17.02876 C 68.23807,9.52419 75.3315,5.92436 81.96467,5.92436 C 89.62596,5.92436 96.66767,9.2659 96.66767,17.75046 L 89.11227,17.75046 C 88.854415,13.32737 85.46248,12.19588 81.60603,12.19588 C 79.03303,12.19588 75.79307,13.27566 75.79307,16.36058 C 75.79307,19.18888 77.64016,19.62768 86.84497,21.99268 C 89.51787,22.659561 97.90387,24.27893 97.90387,32.60838 C 97.90387,39.34185 92.61058,44.37978 82.63287,44.37978 C 74.50961,44.37978 66.90167,40.37136 67.00327,31.32198 L 74.55999,31.32198 L 74.5599,31.3219 z "
   id="path3344"
   style="fill:#084da5;fill-rule:nonzero" />
  <path
   d="M 169.266,10.6376 C 169.266,8.62947 170.89435,7.00288 172.90204,7.00288 C 174.90885,7.00288 176.53544,8.62947 176.53544,10.6376 C 176.53544,12.64529 174.90885,14.27232 172.90204,14.27232 C 170.89435,14.27232 169.266,12.64529 169.266,10.6376 z M 172.90204,14.63527 C 175.109,14.63527 176.89971,12.84588 176.89971,10.6376 C 176.89971,8.42888 175.109,6.63816 172.90204,6.63816 C 170.69199,6.63816 168.90304,8.42887 168.90304,10.6376 C 168.90304,12.84588 170.69199,14.63527 172.90204,14.63527 z "
   id="path3346"
   style="fill:#084da5;fill-rule:nonzero" />
  <path
   d="M 173.287,10.5295 C 173.70166,10.5295 174.06162,10.241076 174.06162,9.733912 C 174.06162,9.223224 173.70166,8.9348 173.287,8.9348 L 172.07023,8.9330381 L 172.07023,12.978108 L 171.25605,12.978108 L 171.25605,8.2966381 L 173.287,8.2966381 C 174.24847,8.2966381 174.87404,8.9317171 174.87404,9.7339081 C 174.87404,10.432239 174.35957,10.962218 173.81399,11.052258 L 175.12335,12.978108 L 174.14981,12.978108 L 172.57749,10.529498 L 173.28701,10.529498 L 173.287,10.5295 z "
   id="path3348"
   style="fill:#084da5;fill-rule:nonzero" />
 </g>
</svg>