<svg version="1.2" xmlns="http://www.w3.org/2000/svg" viewBox="0 0 1551 390" width="1551" height="390">
	<title>688475</title>
	<style>
		.s0 { fill: #9dc814 } 
		.s1 { fill: #e61673 } 
		.s2 { fill: #00a0e9 } 
		.s3 { fill: #fabe00 } 
		.s4 { fill: #727171 } 
		.s5 { fill: #717071 } 
		.s6 { fill: #96be24 } 
		.s7 { fill: #d5206d } 
		.s8 { fill: #1e95d4 } 
		.s9 { fill: #efb918 } 
	</style>
	<g id="图层_2">
		<g id="图层_1-2">
			<path class="s0" d="m409.2 69.3c-6.1-38.1-52.6-61-107.9-50-8.2 1.8-16.2 4.3-24.1 7.3-7.8 3.1-15.3 6.8-22.6 11-7.2 4.3-14.1 9.1-20.6 14.4-6.5 5.4-12.6 11.2-18.2 17.5 12.5 1.1 24.7 4.1 36.3 8.8 11.6 4.7 22.5 11 32.2 18.9 9.7 7.9 18.2 17.1 25.3 27.5 7 10.3 12.4 21.7 16.1 33.6 66.5-12.8 89.3-46.3 83.5-89z"/>
			<path class="s0" d="m272.3 163.2h3.6c-3.4-7.7-8.1-14.8-13.8-21-5.8-6.2-12.5-11.5-20-15.5-7.4-4-15.5-6.7-23.8-8.1-8.4-1.3-16.9-1.3-25.3 0.1q0 0.7 0 1.3-0.1 0.7-0.1 1.3 0 0.7 0.1 1.3 0 0.7 0 1.4c5.8 29.1 38.1 39.2 79.3 39.2z"/>
			<path class="s0" d="m205 108.8c8.6 0 17.1 1.3 25.4 3.9 8.2 2.5 15.9 6.2 23 11.1 7.1 4.8 13.5 10.6 18.9 17.3 5.3 6.7 9.7 14.2 12.9 22.1 10-0.4 20.3-1.4 30.8-2.8h0.8c-3.6-11.5-9-22.3-16-32.1-6.9-9.9-15.4-18.6-25-25.8-9.6-7.3-20.3-13-31.6-17-11.4-4.1-23.3-6.3-35.4-6.7q-2.7 3.5-5 7.2-2.3 3.7-4.2 7.7-2 3.9-3.4 8.1-1.5 4.1-2.5 8.4 1.4-0.3 2.8-0.5 1.4-0.2 2.8-0.4 1.5-0.1 2.9-0.3 1.4-0.1 2.8-0.2z"/>
			<path class="s1" d="m138 226.7h-3.5c3.1 6.7 7.1 13 11.9 18.6 4.9 5.6 10.5 10.4 16.7 14.4 6.2 4 13 7.1 20.1 9.2 7.1 2.1 14.4 3.1 21.8 3.1q1.6 0.1 3.2 0.1 1.6-0.1 3.2-0.2 1.6-0.1 3.2-0.2 1.6-0.2 3.2-0.4 0-0.6 0-1.3 0-0.6-0.1-1.3-0.1-0.6-0.1-1.3-0.1-0.6-0.2-1.2c-6.1-29.3-38.4-39.5-79.4-39.5z"/>
			<path class="s1" d="m205 281.1c-8.6 0-17.1-1.3-25.3-3.8-8.2-2.6-16-6.3-23.1-11.1-7.1-4.8-13.4-10.7-18.8-17.4-5.4-6.7-9.7-14.1-12.9-22.1-10 0.5-20.3 1.4-30.8 2.7h-0.9c3.7 11.5 9.1 22.3 16 32.2 7 9.8 15.4 18.5 25 25.8 9.7 7.2 20.3 13 31.7 17 11.4 4 23.3 6.2 35.3 6.6q2.7-3.4 5.1-7.1 2.3-3.8 4.2-7.7 2-4 3.4-8.1 1.5-4.2 2.6-8.4-1.5 0.2-2.9 0.3-1.4 0.2-2.8 0.3-1.5 0.1-2.9 0.2-1.4 0.1-2.9 0.1"/>
			<path class="s1" d="m84.4 231.7c-66.2 13.1-89.4 46.3-83.5 89 6.1 38.1 52.6 61 107.8 49.9 8.2-1.8 16.3-4.2 24.1-7.3 7.8-3 15.4-6.7 22.7-10.9 7.2-4.3 14.1-9.1 20.6-14.4 6.5-5.3 12.6-11.2 18.1-17.4-12.4-1.1-24.7-4.1-36.3-8.8-11.6-4.6-22.5-11-32.2-18.9-9.7-7.9-18.2-17.1-25.2-27.5-7-10.4-12.4-21.7-16.1-33.7z"/>
			<path class="s2" d="m172.4 124.9c-6.6 3.1-12.8 7.1-18.3 11.9-5.5 4.8-10.3 10.4-14.3 16.6-3.9 6.2-7 12.9-9.1 19.9-2 7-3.1 14.3-3.1 21.7q0 1.5 0.1 3.1 0.1 1.6 0.2 3.1 0.1 1.6 0.3 3.2 0.2 1.5 0.5 3.1 3.1-0.7 6-1.8 2.9-1.2 5.6-2.7 2.7-1.6 5.2-3.6 2.4-1.9 4.5-4.3c12.3-12.8 19.9-40.4 22.4-70.2z"/>
			<path class="s2" d="m118.6 195c0-8.6 1.3-17.2 3.9-25.4 2.5-8.2 6.3-15.9 11.1-23 4.8-7.1 10.7-13.5 17.4-18.9 6.6-5.3 14.1-9.7 22.1-12.9q0.1-4 0.2-8 0-4.1-0.1-8.1 0-4-0.2-8.1-0.2-4-0.6-8c-12.1 3.5-23.5 8.9-33.9 16.1-10.4 7.1-19.5 15.9-27.1 26-7.6 10.1-13.5 21.3-17.5 33.2-4 12-6 24.5-6 37.1 0 0.4 0 0.9 0 1.4q3.4 2.6 7.2 4.7 3.7 2 7.8 3.5 4 1.5 8.2 2.4 4.2 0.9 8.5 1.2-0.2-1.6-0.4-3.3-0.2-1.6-0.4-3.3-0.1-1.7-0.2-3.3c0-1.1-0.1-2.2 0-3.3z"/>
			<path class="s2" d="m171.7 73.5q-0.5-6.2-1.6-12.3-1.2-6.1-3-12-1.8-6-4.3-11.6-2.4-5.7-5.5-11.1c-2.3-3.9-5.1-7.5-8.3-10.7-3.3-3.2-6.9-6-10.8-8.3-3.9-2.3-8-4.1-12.4-5.3-4.3-1.3-8.8-2-13.3-2.2-18.5 0-38.7 10.2-58 31.7-38.2 41.9-20.7 97.7 3.8 133.6q2.2 3.4 4.6 6.5 2.4 3.2 5 6.3 2.6 3 5.4 5.9 2.8 2.8 5.8 5.5c0.6-13.2 3.2-26.3 7.9-38.7 4.7-12.4 11.2-24 19.5-34.4 8.3-10.3 18.1-19.3 29.2-26.6 11.1-7.3 23.2-12.8 36-16.3z"/>
			<path class="s3" d="m238.4 316.5q0.5 6.2 1.6 12.3 1.1 6.1 3 12 1.8 5.9 4.3 11.6 2.4 5.7 5.6 11.1c2.3 3.8 5.1 7.4 8.3 10.6 3.2 3.2 6.8 6 10.7 8.3 3.9 2.3 8.1 4.1 12.4 5.4 4.4 1.2 8.9 2 13.4 2.1 18.1 0 38.6-10.3 58.3-31.8 38.2-41.8 20.7-97.7-3.8-133.6q-2.2-3.3-4.7-6.5-2.5-3.2-5.1-6.2-2.7-3-5.5-5.9-2.9-2.8-5.9-5.5c-0.6 13.2-3.2 26.3-7.9 38.7-4.6 12.4-11.2 24-19.5 34.4-8.3 10.3-18.1 19.3-29.2 26.6-11 7.3-23.2 12.9-36 16.4z"/>
			<path class="s3" d="m237.7 265.1c6.7-3.1 12.8-7.1 18.4-12 5.5-4.8 10.3-10.4 14.2-16.6 4-6.1 7-12.8 9.1-19.9 2.1-7 3.1-14.3 3.1-21.6q0-1.6-0.1-3.2-0.1-1.5-0.2-3.1-0.2-1.5-0.4-3.1-0.2-1.5-0.4-3.1-3.1 0.7-6 1.8-2.9 1.2-5.6 2.7-2.7 1.6-5.2 3.6-2.4 1.9-4.5 4.3c-12.2 12.9-19.9 40.4-22.5 70.2"/>
			<path class="s3" d="m291.5 195c0 8.6-1.3 17.1-3.8 25.3-2.5 8.2-6.3 16-11.1 23.1-4.8 7.1-10.7 13.5-17.4 18.8-6.7 5.4-14.1 9.8-22.1 12.9q-0.2 4.1-0.3 8.1-0.1 4 0 8.1 0 4 0.2 8.1 0.2 4 0.5 8c12.1-3.5 23.6-8.9 34-16.1 10.4-7.2 19.5-15.9 27.1-26 7.6-10.1 13.5-21.3 17.5-33.3 4-11.9 6.1-24.4 6.1-37v-1.4q-3.4-2.6-7.2-4.7-3.8-2.1-7.8-3.7-4-1.5-8.2-2.5-4.3-1-8.6-1.3 0.3 1.6 0.5 3.3 0.2 1.6 0.4 3.3 0.1 1.6 0.2 3.3 0.1 1.6 0.1 3.3"/>
			<path class="s4" d="m746.9 80.9h141.1q0.6 0 1 0.3 0.5 0.3 0.7 0.8 0.2 0.6 0.1 1.1-0.1 0.5-0.4 1c-0.3 0.2-91.7 86.9-140.7 136-9.1 9.1-6.1 23.6 6.2 23.6h196.3v-25.5h-141.5q-0.6 0-1.1-0.3-0.4-0.3-0.7-0.8-0.2-0.5-0.1-1.1 0.1-0.5 0.5-0.9l140.9-136c9-9.1 6.1-23.6-6.2-23.6h-196.1z"/>
			<path class="s4" d="m1285.3 80.9h141.2q0.5 0 1 0.3 0.5 0.3 0.7 0.8 0.2 0.6 0.1 1.1-0.1 0.5-0.5 1c-0.2 0.2-91.6 86.9-140.6 136-9.1 9.1-6.1 23.6 6.2 23.6h196.2v-25.5h-141.4q-0.6 0-1.1-0.3-0.4-0.3-0.7-0.8-0.2-0.5-0.1-1.1 0.1-0.5 0.5-0.9l140.9-136c9-9.1 6-23.6-6.2-23.6h-196.2z"/>
			<path fill-rule="evenodd" class="s4" d="m1225.7 55.8h-8v187.5h8 25.9 5.7v-187.5h-5.7-25.9z"/>
			<path fill-rule="evenodd" class="s4" d="m723.2 136.3v24.2h-148.8v-24.2z"/>
			<path class="s4" d="m556.9 112.4c-0.3-4.2 0.3-8.3 1.8-12.2 1.4-3.8 3.6-7.4 6.5-10.3 2.8-3 6.3-5.3 10.1-6.9 3.9-1.5 8-2.2 12.1-2.1h138.7v-25.1h-154.9c-45.4 0-63.6 31.7-63.6 61v65.5c0 29.3 18.2 61 63.6 61h154.9v-25h-138.7c-4.1 0.1-8.2-0.6-12.1-2.2-3.8-1.5-7.3-3.8-10.1-6.8-2.9-3-5.1-6.5-6.5-10.4-1.5-3.9-2.1-8-1.8-12.1z"/>
			<path class="s4" d="m1158.9 55.8l-75 138.2q0 0.1-0.2 0.2-0.1 0.2-0.3 0.2-0.1 0.1-0.3 0.2-0.2 0-0.3 0-0.2 0-0.4 0-0.1-0.1-0.3-0.1-0.1-0.1-0.2-0.3-0.1-0.1-0.2-0.2l-75.1-138.2h-45.4l101.2 181.3q0.9 1.5 2.1 2.7 1.2 1.3 2.6 2.1 1.5 0.9 3.1 1.3 1.7 0.5 3.4 0.5h18.2q1.7 0 3.3-0.5 1.6-0.4 3.1-1.3 1.5-0.8 2.6-2 1.2-1.3 2-2.8l101.3-181.3z"/>
			<path fill-rule="evenodd" class="s4" d="m1521.8 59.6h-7v21h-5.1v-21h-7v-3.9h19.1v3.9z"/>
			<path fill-rule="evenodd" class="s4" d="m1531.1 55.7l6.4 18.4h0.1l6.4-18.4h6.5v24.9h-4.9v-7.4l0.4-11h-0.1l-6.7 18.4h-3.4l-6.6-18.4h-0.1l0.5 11v7.4h-5v-24.9h6.5z"/>
			<path class="s5" d="m558.4 335.5q0 1.9-0.4 3.7-0.5 1.8-1.2 3.5-0.8 1.7-1.9 3.2-1.1 1.5-2.4 2.8-1.5 1.2-3.1 2.2-1.7 0.9-3.5 1.6-1.8 0.6-3.7 0.8-1.9 0.3-3.8 0.2-2.1 0.1-4.2-0.3-2.1-0.4-4.1-1.3-2-0.9-3.6-2.2-1.7-1.3-3.1-2.9-1.5-1.9-2.6-3.9-1.1-2.1-1.8-4.3-0.8-2.2-1.1-4.6-0.3-2.3-0.2-4.6v-9.1q-0.1-2.4 0.2-4.7 0.3-2.3 1.1-4.5 0.7-2.3 1.8-4.3 1.1-2.1 2.6-3.9 1.4-1.7 3.1-2.9 1.7-1.3 3.6-2.2 2-0.9 4.1-1.3 2.1-0.4 4.2-0.3 1.9-0.1 3.8 0.1 1.9 0.3 3.7 0.9 1.8 0.6 3.5 1.5 1.7 1 3.1 2.2 1.4 1.3 2.5 2.8 1 1.5 1.8 3.2 0.8 1.7 1.2 3.5 0.4 1.9 0.4 3.7h-4.2q-0.1-1.5-0.5-2.9-0.4-1.4-1-2.8-0.6-1.4-1.5-2.6-0.8-1.2-1.8-2.3-1.1-1-2.4-1.7-1.3-0.7-2.7-1.2-1.4-0.4-2.9-0.6-1.4-0.2-2.9-0.1-1.7-0.1-3.4 0.3-1.6 0.4-3.2 1.1-1.5 0.7-2.8 1.8-1.3 1.1-2.3 2.4-1.2 1.6-2.1 3.3-0.8 1.7-1.4 3.6-0.6 1.8-0.8 3.8-0.3 1.9-0.2 3.8v9.1q-0.1 2 0.1 3.9 0.1 2 0.7 3.9 0.5 1.9 1.3 3.7 0.9 1.7 2 3.4 1 1.3 2.3 2.4 1.4 1 2.9 1.8 1.5 0.7 3.2 1.1 1.6 0.3 3.3 0.3 1.5 0.1 3-0.1 1.4-0.2 2.8-0.7 1.5-0.4 2.8-1.1 1.3-0.7 2.4-1.7 1.1-1 1.9-2.2 0.9-1.2 1.5-2.6 0.7-1.3 1.1-2.8 0.4-1.4 0.6-2.9z"/>
			<path class="s5" d="m588.1 315.2h-3.3q-1 0-1.9 0.1-1 0.1-1.9 0.4-0.9 0.3-1.7 0.8-0.9 0.5-1.6 1.1-0.7 0.6-1.4 1.4-0.6 0.8-1.1 1.6-0.5 0.9-0.9 1.8-0.4 0.9-0.6 1.9v28.5h-4.6v-41.5h4.1l0.5 6.9q0.4-0.9 0.9-1.7 0.5-0.8 1.1-1.6 0.6-0.8 1.3-1.4 0.7-0.7 1.5-1.3 0.8-0.5 1.6-0.9 0.9-0.5 1.8-0.7 0.9-0.3 1.9-0.5 0.9-0.1 1.9-0.1h1.7 1.4z"/>
			<path class="s5" d="m610.6 353.7q-1.8 0-3.6-0.4-1.8-0.3-3.5-1.1-1.7-0.7-3.2-1.8-1.4-1.1-2.6-2.5-1.3-1.5-2.3-3.2-1-1.7-1.6-3.5-0.7-1.9-1-3.8-0.3-2-0.2-4v-2.1q-0.1-2 0.2-4 0.3-2 0.9-3.9 0.7-1.8 1.7-3.6 1-1.7 2.3-3.2 1.1-1.4 2.5-2.5 1.4-1.1 3-1.9 1.6-0.7 3.4-1.1 1.7-0.4 3.5-0.4 1.7-0.1 3.3 0.2 1.7 0.2 3.2 0.9 1.6 0.6 2.9 1.5 1.4 1 2.6 2.2 1.1 1.3 1.9 2.8 0.8 1.5 1.3 3.1 0.6 1.7 0.8 3.4 0.2 1.7 0.1 3.4v3.9h-29.1v1.2q0 1.5 0.2 3 0.2 1.5 0.7 2.9 0.5 1.5 1.2 2.8 0.7 1.4 1.6 2.6 0.9 1.1 2 2 1.1 0.9 2.4 1.5 1.2 0.7 2.6 1 1.4 0.2 2.8 0.2 1 0 1.9 0 0.9-0.1 1.9-0.2 0.9-0.2 1.8-0.4 0.9-0.3 1.8-0.6 0.7-0.3 1.4-0.6 0.7-0.4 1.3-0.8 0.7-0.4 1.3-0.9 0.6-0.5 1.2-1l1.9 3.1q-0.7 0.6-1.3 1.2-0.7 0.5-1.5 1-0.7 0.5-1.5 0.9-0.8 0.4-1.6 0.8-1.1 0.3-2.1 0.6-1.1 0.3-2.1 0.5-1.1 0.2-2.2 0.3-1.1 0-2.2 0m-0.5-39.1q-1.3 0-2.6 0.2-1.2 0.2-2.4 0.7-1.2 0.5-2.2 1.3-1 0.8-1.9 1.7-0.9 1-1.6 2.2-0.7 1.1-1.2 2.4-0.5 1.2-0.8 2.5-0.3 1.3-0.4 2.6h24.3v-1.1q0.1-1.2-0.1-2.4-0.2-1.2-0.6-2.4-0.4-1.2-1-2.2-0.6-1.1-1.4-2-0.9-1-1.9-1.7-1.1-0.7-2.3-1.2-1.1-0.5-2.4-0.7-1.2-0.2-2.5-0.1"/>
			<path class="s5" d="m661.7 352.7q-0.1-0.5-0.2-0.9-0.1-0.5-0.1-0.9-0.1-0.5-0.2-1 0-0.4-0.1-0.9c0-1 0-2 0-3q-0.6 0.8-1.3 1.6-0.7 0.7-1.5 1.4-0.8 0.7-1.6 1.3-0.9 0.6-1.8 1.1-1 0.5-2.1 1-1.1 0.4-2.3 0.6-1.1 0.3-2.3 0.4-1.2 0.1-2.4 0.1-1.2 0-2.4-0.1-1.2-0.2-2.4-0.6-1.2-0.4-2.2-1.1-1.1-0.6-2-1.4-0.9-0.9-1.6-1.9-0.7-1.1-1.1-2.3-0.5-1.1-0.6-2.4-0.2-1.2-0.1-2.5 0-1.3 0.3-2.6 0.3-1.3 1-2.5 0.6-1.2 1.6-2.2 0.9-1 2-1.7 1.5-1 3.1-1.7 1.7-0.7 3.4-1.1 1.7-0.4 3.4-0.6 1.8-0.2 3.5-0.1h9.1v-5.1q0-0.9-0.2-1.8-0.2-0.8-0.6-1.6-0.3-0.8-0.9-1.5-0.5-0.7-1.1-1.3-0.8-0.7-1.8-1.2-0.9-0.5-2-0.8-1-0.3-2-0.5-1.1-0.1-2.2-0.1-1 0-2.1 0.1-1 0.2-2 0.5-1 0.3-2 0.8-0.9 0.5-1.8 1.1-0.7 0.5-1.3 1.1-0.6 0.7-1 1.4-0.4 0.8-0.6 1.7-0.3 0.8-0.2 1.7h-4.3q-0.1-1.2 0.2-2.4 0.3-1.2 0.8-2.3 0.6-1.1 1.4-2 0.8-0.9 1.8-1.6 1.2-0.9 2.5-1.6 1.4-0.7 2.8-1.2 1.5-0.5 3-0.7 1.5-0.2 3-0.2 1.5-0.1 3 0.1 1.4 0.2 2.9 0.7 1.4 0.4 2.7 1.1 1.3 0.7 2.5 1.7 1 0.9 1.9 2 0.8 1.2 1.3 2.5 0.6 1.2 0.8 2.6 0.3 1.4 0.2 2.8v19.9q-0.1 0.5-0.1 1.1 0 0.5 0 1 0 0.6 0 1.1 0 0.5 0.1 1.1 0 0.5 0.1 1 0.1 0.5 0.2 1 0.1 0.5 0.2 1 0.1 0.5 0.3 1zm-15.1-3.1q1.2 0 2.4-0.1 1.2-0.1 2.3-0.4 1.2-0.3 2.3-0.8 1.1-0.5 2.1-1.1 0.9-0.5 1.7-1.2 0.8-0.6 1.5-1.3 0.7-0.8 1.3-1.6 0.6-0.9 1-1.8v-9.1h-9.1q-1.3 0-2.6 0.1-1.3 0.2-2.6 0.5-1.2 0.4-2.4 0.9-1.2 0.5-2.3 1.3-0.9 0.5-1.6 1.2-0.7 0.7-1.2 1.6-0.4 0.9-0.7 1.8-0.3 1-0.3 2 0 0.7 0.1 1.5 0.2 0.8 0.5 1.5 0.3 0.7 0.8 1.3 0.4 0.6 1 1.1 0.7 0.6 1.4 1 0.7 0.4 1.6 0.7 0.8 0.3 1.6 0.4 0.9 0.1 1.7 0.1"/>
			<path class="s5" d="m684.9 300.7v10.6h9.1v3.7h-9.1v27.2q-0.1 0.8 0 1.5 0 0.8 0.2 1.5 0.2 0.7 0.5 1.4 0.3 0.7 0.7 1.3 0.4 0.5 0.9 0.8 0.4 0.3 0.9 0.6 0.5 0.2 1.1 0.3 0.6 0.1 1.1 0.1h2.2 2.4l0.7 3.4q-0.4 0.1-0.7 0.3-0.3 0.1-0.7 0.2-0.4 0.1-0.7 0.1-0.4 0.1-0.7 0.1l-3-0.1q-1 0-1.9-0.2-0.9-0.1-1.8-0.5-0.9-0.3-1.7-0.9-0.8-0.5-1.4-1.2-0.7-0.9-1.3-2-0.5-1.1-0.8-2.3-0.3-1.1-0.4-2.3-0.1-1.2 0-2.4v-27.2h-7.1v-3.8h7.3v-10.2z"/>
			<path class="s5" d="m708.8 299.3l-4.5-0.1v-6.4h4.5zm0 53.2h-4.5v-41.1h4.5z"/>
			<path class="s5" d="m726.1 311.3v7.2q0.4-0.9 1-1.8 0.6-0.8 1.2-1.5 0.7-0.8 1.5-1.4 0.8-0.7 1.6-1.2 0.9-0.5 1.9-1 1-0.4 2-0.6 1-0.3 2-0.4 1.1-0.1 2.1-0.1 1.5-0.1 2.9 0.1 1.4 0.2 2.8 0.8 1.3 0.5 2.5 1.4 1.2 0.8 2.2 1.9 0.9 1.4 1.7 2.9 0.7 1.5 1.1 3.2 0.5 1.6 0.7 3.3 0.1 1.7 0 3.4v25.2h-4.5v-25.2q0.1-1.4 0-2.7-0.1-1.3-0.5-2.6-0.3-1.3-0.9-2.5-0.6-1.2-1.4-2.3-0.7-0.8-1.5-1.4-0.9-0.6-1.9-1-0.9-0.4-2-0.5-1-0.2-2.1-0.1-1 0-2.1 0.1-1 0.2-2.1 0.5-1 0.3-1.9 0.8-0.9 0.5-1.8 1.1-0.7 0.7-1.4 1.5-0.7 0.8-1.2 1.6-0.6 0.9-1 1.8-0.4 1-0.7 1.9v29h-4.8v-41.4z"/>
			<path class="s5" d="m763.5 332.3q-0.1-2 0.1-4.1 0.2-2.1 0.7-4.1 0.6-2 1.4-3.9 0.8-2 2-3.7c1-1.5 2.4-2.7 3.9-3.7 1.5-0.9 3.2-1.6 5-2 1.8-0.4 3.6-0.4 5.4-0.1 1.8 0.3 3.5 0.9 5.1 1.8q0.8 0.5 1.6 1.1 0.7 0.6 1.4 1.3 0.7 0.7 1.3 1.4 0.5 0.8 1 1.6l0.6-6.6h3.8v40.9q0.1 1.7-0.2 3.4-0.2 1.7-0.8 3.3-0.6 1.6-1.4 3.1-0.9 1.5-2 2.8-1.2 1.2-2.6 2.1-1.5 0.9-3.1 1.5-1.6 0.6-3.2 0.9-1.7 0.2-3.4 0.1-0.8 0-1.6 0-0.8-0.1-1.6-0.2-0.8-0.1-1.6-0.2-0.8-0.1-1.6-0.3-0.7-0.1-1.5-0.3-0.7-0.2-1.5-0.5-0.7-0.2-1.4-0.5-0.8-0.3-1.5-0.7l1.2-3.9q0.6 0.3 1.3 0.6 0.6 0.3 1.2 0.5 0.7 0.3 1.4 0.5 0.6 0.2 1.3 0.3 0.7 0.2 1.4 0.3 0.7 0.1 1.5 0.2 0.7 0.1 1.4 0.1 0.8 0.1 1.5 0.1 1.3 0 2.5-0.2 1.2-0.1 2.4-0.6 1.2-0.5 2.2-1.2 1.1-0.7 2-1.6 0.8-1 1.4-2.1 0.6-1.2 1-2.4 0.4-1.2 0.6-2.5 0.1-1.3 0.1-2.6v-5.3q-0.6 0.8-1.2 1.5-0.6 0.7-1.2 1.3-0.7 0.6-1.5 1.2-0.7 0.5-1.5 0.9-0.9 0.5-1.8 0.8-0.9 0.3-1.9 0.5-0.9 0.2-1.9 0.3-1 0.1-1.9 0.1-1.7 0.1-3.4-0.3-1.6-0.3-3.2-1-1.5-0.8-2.8-1.8-1.3-1.1-2.3-2.5-1.2-1.6-2-3.3-0.8-1.8-1.4-3.7-0.5-1.9-0.7-3.8-0.2-2-0.1-3.9zm4.5 0.8q0 1.6 0.2 3.1 0.2 1.6 0.7 3.1 0.4 1.5 1 3 0.7 1.4 1.6 2.8 0.7 1 1.7 1.9 1 0.9 2.2 1.5 1.2 0.5 2.5 0.8 1.3 0.3 2.6 0.2 1 0 2-0.1 0.9-0.1 1.9-0.3 0.9-0.3 1.8-0.7 0.9-0.4 1.7-0.9 0.8-0.5 1.4-1.2 0.7-0.6 1.3-1.3 0.6-0.8 1.1-1.6 0.5-0.8 0.8-1.6v-19.2q-0.3-0.9-0.8-1.7-0.4-0.8-1-1.6-0.6-0.7-1.2-1.4-0.7-0.7-1.4-1.2-0.8-0.6-1.7-1.1-0.9-0.5-1.9-0.8-0.9-0.3-1.9-0.4-1-0.1-2.1-0.1-1.3 0-2.6 0.3-1.4 0.3-2.6 1-1.2 0.6-2.1 1.6-1 0.9-1.7 2.1-0.8 1.5-1.4 3.1-0.7 1.5-1 3.2-0.4 1.6-0.6 3.3-0.2 1.7-0.1 3.4z"/>
			<path fill-rule="evenodd" class="s5" d="m860.8 325.7h-26.9v23.1h30.8v4h-35.3v-55.8h35.1v3.9h-30.6v20.9h26.9v3.9z"/>
			<path class="s5" d="m899.5 352.7q-0.1-0.5-0.2-0.9-0.1-0.5-0.1-0.9-0.1-0.5-0.2-1-0.1-0.4-0.1-0.9 0-0.4-0.1-0.7 0-0.4 0-0.8 0-0.4 0-0.8 0.1-0.4 0.1-0.7-0.6 0.8-1.3 1.6-0.7 0.7-1.5 1.4-0.8 0.7-1.6 1.3-0.9 0.6-1.8 1.1-1 0.5-2.1 1-1.1 0.4-2.3 0.6-1.1 0.3-2.3 0.4-1.2 0.1-2.4 0.1-1.2 0-2.4-0.2-1.2-0.1-2.4-0.5-1.2-0.5-2.2-1.1-1.1-0.6-2-1.4-0.9-0.9-1.6-1.9-0.7-1.1-1.1-2.3-0.4-1.1-0.6-2.4-0.2-1.2-0.1-2.5 0-1.3 0.3-2.6 0.4-1.4 1-2.5 0.7-1.2 1.6-2.2 1-1 2.1-1.7 1.5-0.9 3.1-1.5 1.6-0.7 3.3-1.1 1.7-0.4 3.4-0.5 1.7-0.1 3.5 0h9v-5.2q0-0.9-0.1-1.8-0.2-0.9-0.6-1.7-0.3-0.9-0.8-1.6-0.5-0.8-1.2-1.4-0.8-0.7-1.8-1.2-0.9-0.5-2-0.8-1-0.3-2-0.5-1.1-0.1-2.2-0.1-1 0-2.1 0.1-1 0.2-2 0.5-1 0.3-2 0.8-0.9 0.5-1.8 1.1-0.7 0.5-1.3 1.1-0.6 0.7-1 1.4-0.4 0.8-0.6 1.7-0.3 0.8-0.3 1.7h-4.2q0-1.2 0.2-2.4 0.3-1.2 0.9-2.3 0.5-1 1.3-2 0.8-0.9 1.8-1.6 1.2-0.9 2.6-1.6 1.3-0.7 2.8-1.2 1.4-0.5 3-0.7 1.5-0.2 3-0.2 1.5-0.1 3 0.1 1.4 0.2 2.8 0.7 1.5 0.4 2.8 1.1 1.3 0.7 2.5 1.7 1 0.9 1.8 2 0.9 1.2 1.4 2.5 0.5 1.3 0.8 2.6 0.2 1.4 0.1 2.8v19.9q0 0.5 0 1.1 0 0.5 0 1 0 0.6 0 1.1 0 0.5 0 1.1 0.1 0.5 0.1 1 0.1 0.5 0.2 1 0.1 0.5 0.2 1 0.2 0.5 0.4 1zm-15.1-3.1q1.2 0 2.4-0.1 1.1-0.2 2.3-0.5 1.1-0.3 2.2-0.7 1.1-0.5 2.2-1.1 0.8-0.5 1.7-1.2 0.8-0.6 1.5-1.3 0.7-0.8 1.2-1.6 0.6-0.9 1.1-1.8v-9.1h-9.6q-1.3 0-2.6 0.1-1.4 0.2-2.6 0.5-1.3 0.3-2.5 0.9-1.2 0.5-2.3 1.3-0.9 0.5-1.6 1.2-0.6 0.7-1.1 1.6-0.5 0.9-0.8 1.8-0.2 1-0.2 2-0.1 0.7 0.1 1.5 0.1 0.7 0.4 1.5 0.3 0.7 0.7 1.3 0.5 0.6 1 1.1 0.7 0.6 1.5 1 0.7 0.5 1.6 0.7 0.8 0.3 1.6 0.4 0.9 0.1 1.8 0.1"/>
			<path class="s5" d="m940.3 342.1q0-0.7-0.2-1.4-0.2-0.7-0.5-1.3-0.3-0.7-0.7-1.3-0.4-0.6-1-1-1-0.8-2.1-1.3-1.1-0.6-2.2-1.1-1.1-0.4-2.3-0.7-1.2-0.3-2.5-0.5-1.4-0.2-2.9-0.6-1.4-0.4-2.8-0.9-1.4-0.6-2.7-1.2-1.3-0.7-2.5-1.5-0.9-0.7-1.6-1.5-0.7-0.8-1.2-1.8-0.4-1-0.7-2-0.2-1.1-0.2-2.2 0-1.1 0.3-2.3 0.3-1.1 0.8-2.2 0.5-1 1.3-1.9 0.8-0.9 1.7-1.6 1.1-0.9 2.4-1.5 1.2-0.7 2.6-1.1 1.3-0.4 2.7-0.6 1.4-0.2 2.8-0.1 1.5-0.1 3 0.1 1.5 0.2 2.9 0.6 1.5 0.5 2.8 1.1 1.3 0.7 2.5 1.6 1 0.9 1.8 1.9 0.8 1 1.3 2.2 0.5 1.2 0.7 2.5 0.2 1.2 0.1 2.5h-4.3q0-0.9-0.1-1.7-0.2-0.8-0.6-1.6-0.4-0.8-0.9-1.5-0.6-0.6-1.3-1.2-0.8-0.6-1.7-1.1-0.9-0.5-1.9-0.9-1-0.3-2.1-0.4-1-0.2-2.1-0.1-1-0.1-2 0-1 0.1-1.9 0.4-1 0.3-1.9 0.7-0.9 0.5-1.7 1.1-0.6 0.4-1 1-0.5 0.6-0.8 1.2-0.3 0.7-0.5 1.4-0.2 0.7-0.2 1.4 0 0.7 0.2 1.4 0.1 0.6 0.4 1.2 0.3 0.7 0.7 1.2 0.4 0.5 0.9 1 1.1 0.6 2.2 1.1 1 0.6 2.2 1 1.1 0.4 2.3 0.7 1.2 0.3 2.4 0.4 1.5 0.3 2.9 0.7 1.5 0.4 2.9 1 1.4 0.6 2.7 1.3 1.3 0.7 2.6 1.6 0.9 0.6 1.6 1.5 0.7 0.8 1.2 1.9 0.4 1 0.6 2.1 0.3 1 0.2 2.2 0 1.2-0.2 2.4-0.3 1.2-0.8 2.3-0.6 1.1-1.4 2-0.8 1-1.8 1.7-1.2 0.8-2.5 1.5-1.3 0.6-2.7 1-1.5 0.4-2.9 0.6-1.5 0.2-2.9 0.1-1.6 0.1-3.2-0.1-1.6-0.2-3.1-0.7-1.5-0.4-2.9-1.1-1.5-0.7-2.7-1.7-1.1-0.8-1.9-1.8-0.8-1-1.3-2.2-0.5-1.2-0.8-2.5-0.2-1.2-0.1-2.5h4.2q0 0.9 0.3 1.9 0.2 0.9 0.7 1.8 0.5 0.8 1.2 1.5 0.6 0.7 1.5 1.2 0.9 0.5 1.9 0.9 0.9 0.4 1.9 0.7 1 0.2 2.1 0.3 1 0.1 2.1 0.1 1 0.1 2-0.1 1.1-0.1 2.1-0.3 0.9-0.3 1.9-0.8 0.9-0.4 1.8-1 0.6-0.4 1.2-1 0.5-0.5 0.9-1.2 0.4-0.7 0.6-1.5 0.2-0.8 0.2-1.5"/>
			<path class="s5" d="m967.2 341.5l1.5 4.9 12.5-35.1h5.2l-18.2 48.1q-0.3 0.9-0.8 1.9-0.4 0.9-0.9 1.8-0.6 0.9-1.2 1.7-0.6 0.9-1.2 1.6-0.7 0.8-1.6 1.4-0.8 0.6-1.8 1-1 0.4-2 0.6-1 0.1-2.1 0h-2-1.7l0.5-3.8h1.6 1.4q0.7 0.1 1.4-0.1 0.7-0.1 1.3-0.4 0.6-0.3 1.2-0.7 0.5-0.4 0.9-0.9 0.5-0.7 1-1.3 0.4-0.6 0.8-1.3 0.4-0.7 0.7-1.4 0.3-0.7 0.5-1.5l2.2-5.5-16-40.9h5.1z"/>
			<path class="s5" d="m1046.1 339q0-1.1-0.2-2.1-0.2-1.1-0.6-2.1-0.5-0.9-1.1-1.8-0.7-0.8-1.5-1.5-1.4-0.9-2.8-1.7-1.4-0.8-2.9-1.4-1.5-0.6-3.1-1.1-1.5-0.5-3.1-0.8-1.9-0.4-3.7-1-1.8-0.6-3.5-1.3-1.8-0.8-3.4-1.7-1.7-0.9-3.2-2-1.2-0.9-2.1-2-0.9-1.1-1.5-2.4-0.6-1.3-0.9-2.7-0.3-1.4-0.3-2.8 0-1.5 0.4-3 0.3-1.5 1-2.9 0.7-1.3 1.7-2.5 1-1.2 2.2-2 1.5-1.1 3.1-1.9 1.6-0.8 3.3-1.3 1.8-0.5 3.6-0.7 1.7-0.2 3.5-0.1 1.9-0.1 3.8 0.1 1.9 0.3 3.6 0.9 1.8 0.6 3.5 1.6 1.6 0.9 3 2.2 1.3 1 2.3 2.4 1 1.3 1.6 2.8 0.7 1.5 1 3.1 0.3 1.6 0.3 3.3h-4.3q0.1-1.3-0.2-2.6-0.3-1.2-0.8-2.4-0.5-1.2-1.2-2.2-0.8-1-1.8-1.9-1.1-0.9-2.3-1.7-1.3-0.7-2.7-1.1-1.3-0.5-2.8-0.7-1.4-0.2-2.9-0.1-1.4-0.1-2.8 0.1-1.3 0.1-2.7 0.5-1.3 0.4-2.6 1-1.3 0.6-2.4 1.4-0.9 0.6-1.6 1.4-0.7 0.9-1.2 1.8-0.4 1-0.7 2.1-0.2 1-0.2 2.1 0 1 0.2 2 0.3 1 0.7 1.9 0.5 0.9 1.1 1.7 0.6 0.8 1.4 1.4 1.4 0.9 2.8 1.7 1.5 0.8 3 1.4 1.5 0.6 3.1 1.1 1.6 0.5 3.2 0.8 1.8 0.4 3.6 1 1.8 0.6 3.6 1.3 1.7 0.8 3.3 1.8 1.7 0.9 3.2 2 1.1 1 2 2.2 0.9 1.1 1.6 2.5 0.6 1.3 0.9 2.8 0.3 1.4 0.2 2.9 0 1.6-0.3 3.1-0.4 1.5-1.1 2.9-0.7 1.4-1.8 2.6-1 1.1-2.3 2-1.5 1-3.2 1.8-1.7 0.8-3.4 1.3-1.8 0.5-3.6 0.7-1.9 0.2-3.7 0.1-1.9 0-3.9-0.2-1.9-0.2-3.7-0.8-1.9-0.5-3.6-1.3-1.8-0.8-3.4-1.9-1.5-1-2.7-2.3-1.2-1.4-2-3-0.8-1.6-1.1-3.4-0.4-1.7-0.2-3.5h4.2q-0.1 1.4 0.2 2.8 0.3 1.4 0.9 2.7 0.7 1.2 1.6 2.3 1 1 2.2 1.8 1.2 0.8 2.6 1.4 1.4 0.6 2.9 1 1.4 0.4 2.9 0.6 1.5 0.1 3 0.1 1.4 0.1 2.8-0.1 1.4-0.1 2.8-0.5 1.4-0.4 2.7-1 1.2-0.5 2.4-1.3 1-0.7 1.7-1.5 0.8-0.8 1.3-1.9 0.6-1 0.9-2.1 0.2-1.1 0.2-2.2z"/>
			<path class="s5" d="m1064 311.3v6.8q0.5-0.8 1-1.6 0.6-0.8 1.3-1.5 0.7-0.8 1.4-1.4 0.8-0.6 1.6-1.1 0.9-0.5 1.9-0.9 1-0.4 2-0.6 1-0.3 2-0.4 1-0.1 2-0.1 1.1 0 2.1 0.1 1.1 0.1 2.1 0.4 1 0.3 1.9 0.8 1 0.4 1.8 1.1 0.9 0.6 1.6 1.4 0.8 0.7 1.4 1.6 0.6 0.9 1 1.9 0.4 1 0.7 2 0.4-1 0.9-1.9 0.6-1 1.3-1.9 0.6-0.8 1.4-1.6 0.8-0.8 1.7-1.5 0.9-0.6 1.9-1.1 1.1-0.4 2.1-0.8 1.1-0.3 2.2-0.4 1.1-0.1 2.3-0.1 1.4-0.1 2.8 0.2 1.5 0.2 2.8 0.8 1.3 0.6 2.5 1.4 1.2 0.9 2.1 2 1 1.5 1.7 3.2 0.8 1.6 1.2 3.3 0.5 1.8 0.6 3.6 0.2 1.8 0 3.5v24.2h-4.5v-24.3q0.1-1.4 0-2.8-0.1-1.4-0.4-2.8-0.4-1.4-0.9-2.7-0.6-1.3-1.4-2.5-0.7-0.8-1.6-1.4-0.8-0.7-1.8-1.1-1-0.4-2-0.6-1.1-0.2-2.1-0.1-1.2-0.1-2.3 0.1-1.2 0.2-2.2 0.7-1.1 0.4-2.1 1.1-0.9 0.6-1.7 1.4-0.7 1-1.3 2-0.6 1-1.1 2.1-0.4 1-0.7 2.2-0.3 1.1-0.4 2.3v26.4h-4.7v-24.3q0.2-1.4 0-2.8-0.1-1.4-0.4-2.8-0.4-1.4-0.9-2.7-0.6-1.3-1.4-2.4-0.7-0.9-1.5-1.5-0.9-0.6-1.9-1.1-1-0.4-2-0.6-1.1-0.2-2.1-0.1-1.1-0.1-2.1 0.1-1 0.1-2 0.4-1 0.4-1.9 0.9-0.9 0.5-1.7 1.1-0.8 0.7-1.4 1.4-0.7 0.8-1.2 1.6-0.5 0.9-0.8 1.8-0.4 0.9-0.6 1.9v29.1h-4.8v-41.4z"/>
			<path class="s5" d="m1155.8 352.7c0-1.4 0-2.6-0.6-3.7-0.6-1.1 0-2 0-3q-0.6 0.8-1.3 1.6-0.7 0.7-1.4 1.4-0.8 0.7-1.6 1.3-0.9 0.6-1.8 1.1-1 0.5-2.1 1-1.1 0.4-2.3 0.6-1.1 0.3-2.3 0.4-1.2 0.1-2.4 0.1-1.2 0-2.4-0.2-1.2-0.1-2.4-0.5-1.2-0.4-2.2-1.1-1.1-0.6-2-1.4-0.9-0.9-1.6-1.9-0.7-1.1-1.1-2.3-0.5-1.1-0.6-2.4-0.2-1.2-0.1-2.5 0-1.3 0.3-2.6 0.4-1.4 1-2.6 0.7-1.1 1.6-2.1 0.9-1 2.1-1.7 1.5-1 3.1-1.7 1.6-0.7 3.3-1.1 1.7-0.4 3.4-0.6 1.8-0.2 3.5-0.1h9.1v-5.1q0-0.9-0.1-1.7-0.2-0.9-0.5-1.7-0.3-0.7-0.7-1.5-0.5-0.7-1-1.3-0.9-0.7-1.8-1.2-1-0.5-2-0.8-1-0.3-2.1-0.5-1.1-0.1-2.1-0.1-1.1 0-2.2 0.1-1 0.2-2 0.5-1.1 0.3-2 0.8-1 0.5-1.8 1.1-0.7 0.5-1.3 1.1-0.6 0.7-1 1.5-0.4 0.7-0.7 1.6-0.2 0.8-0.2 1.7h-4.2q0-1.2 0.3-2.4 0.3-1.2 0.8-2.3 0.6-1.1 1.4-2 0.8-0.9 1.8-1.6 1.2-0.9 2.5-1.6 1.4-0.8 2.8-1.2 1.5-0.5 3-0.7 1.5-0.2 3-0.2 1.5-0.1 3 0.1 1.4 0.2 2.9 0.7 1.4 0.4 2.7 1.1 1.3 0.7 2.4 1.7 1.1 0.9 1.9 2 0.8 1.2 1.4 2.5 0.5 1.2 0.8 2.6 0.2 1.4 0.1 2.8v19.9q0 0.5-0.1 1.1 0 0.5 0 1 0 0.6 0 1.1 0.1 0.5 0.1 1.1 0.1 0.5 0.1 1 0.1 0.5 0.2 1 0.1 0.5 0.3 1 0.1 0.5 0.2 1zm-15-3.1q1.2 0 2.4-0.1 1.2-0.2 2.3-0.5 1.2-0.3 2.3-0.7 1.1-0.5 2.1-1.1 0.9-0.5 1.7-1.1 0.8-0.7 1.5-1.4 0.7-0.8 1.2-1.6 0.6-0.9 1.1-1.8v-9.1h-9.1q-1.3 0-2.6 0.1-1.4 0.2-2.6 0.5-1.3 0.4-2.5 0.9-1.2 0.5-2.3 1.3-0.8 0.5-1.5 1.2-0.7 0.7-1.2 1.6-0.5 0.9-0.8 1.8-0.2 1-0.2 2 0 0.7 0.1 1.5 0.2 0.8 0.5 1.5 0.3 0.7 0.7 1.3 0.5 0.6 1 1.1 0.7 0.6 1.5 1 0.7 0.5 1.5 0.7 0.9 0.3 1.7 0.4 0.9 0.1 1.8 0.1"/>
			<path class="s5" d="m1190.9 315.2h-3.4q-1 0-1.9 0.1-1 0.2-1.9 0.5-0.9 0.3-1.8 0.7-0.8 0.5-1.6 1.1-0.7 0.6-1.3 1.4-0.6 0.8-1.1 1.6-0.5 0.9-0.9 1.8-0.3 0.9-0.6 1.9v28.5h-4.6v-41.5h4l0.6 6.9q0.4-0.9 0.9-1.7 0.5-0.8 1.2-1.6 0.6-0.8 1.3-1.4 0.7-0.7 1.4-1.3 0.8-0.5 1.7-0.9 0.8-0.5 1.8-0.7 0.9-0.3 1.8-0.5 1-0.1 1.9-0.1h1.7 1.4z"/>
			<path class="s5" d="m1207.1 300.7v10.6h9.1v3.7h-9.1v27.2q0 0.8 0 1.5 0.1 0.8 0.3 1.5 0.2 0.7 0.5 1.4 0.3 0.7 0.8 1.3 0.3 0.5 0.7 0.8 0.5 0.4 1 0.6 0.5 0.2 1.1 0.3 0.5 0.1 1.1 0.1h2.1 2.4l0.7 3.4q-0.3 0.2-0.7 0.3-0.3 0.1-0.7 0.2-0.3 0.1-0.7 0.1-0.3 0.1-0.7 0.1h-3.3q-0.9 0.1-1.8-0.1-1-0.2-1.9-0.5-0.8-0.4-1.6-0.9-0.8-0.5-1.5-1.2-0.7-0.9-1.2-2-0.5-1.1-0.9-2.3-0.3-1.1-0.4-2.3-0.1-1.2 0.1-2.4v-27.3h-7.2v-3.7h7.2v-10.4z"/>
			<path fill-rule="evenodd" class="s5" d="m1287 352.7h-4.6v-25.6h-31.7v25.6h-4.6v-55.7h4.6v26.2h31.7v-26.2h4.6v55.7z"/>
			<path class="s5" d="m1297.9 331.4q-0.1-2.1 0.2-4.1 0.3-2 0.9-3.9 0.7-1.9 1.7-3.7 1-1.8 2.3-3.3 1.2-1.5 2.7-2.6 1.5-1.1 3.2-1.9 1.7-0.8 3.6-1.1 1.8-0.4 3.7-0.3 1.9-0.1 3.8 0.3 1.8 0.4 3.5 1.1 1.8 0.8 3.3 1.9 1.5 1.1 2.7 2.6 1.3 1.6 2.3 3.3 1 1.8 1.6 3.7 0.7 1.9 0.9 3.9 0.3 2 0.2 4.1v1.2q0.1 2.1-0.1 4.1-0.3 2-1 3.9-0.6 1.9-1.6 3.7-1 1.8-2.3 3.4-1.2 1.5-2.7 2.6-1.5 1.2-3.3 2-1.8 0.8-3.7 1.1-1.9 0.4-3.8 0.3-1.9 0-3.7-0.3-1.9-0.4-3.6-1.1-1.8-0.8-3.3-1.9-1.5-1.1-2.7-2.5-1.3-1.6-2.3-3.4-1-1.8-1.7-3.7-0.6-1.9-0.9-3.9-0.3-2.1-0.2-4.1zm4.6 1.3q0 1.6 0.2 3.2 0.2 1.6 0.6 3.1 0.5 1.5 1.2 3 0.7 1.4 1.7 2.7c1.2 1.6 2.7 2.8 4.5 3.6 1.7 0.9 3.6 1.3 5.6 1.3 1.9 0 3.8-0.4 5.6-1.3 1.8-0.8 3.3-2 4.5-3.6q0.9-1.3 1.6-2.7 0.8-1.5 1.2-3 0.5-1.5 0.7-3.1 0.2-1.6 0.1-3.2v-1.3q0.1-1.6-0.1-3.2-0.2-1.6-0.7-3.1-0.5-1.5-1.2-2.9-0.7-1.5-1.6-2.8-0.9-1.2-2-2.1-1.1-1-2.5-1.6-1.3-0.7-2.7-1-1.5-0.3-3-0.3-1.4 0-2.9 0.3-1.4 0.3-2.7 1-1.4 0.6-2.5 1.6-1.1 0.9-1.9 2.1-1 1.3-1.7 2.8-0.7 1.4-1.2 2.9-0.4 1.5-0.6 3.1-0.2 1.6-0.2 3.2z"/>
			<path class="s5" d="m1348 311.3v6.8q0.4-0.8 1-1.6 0.6-0.8 1.3-1.5 0.7-0.8 1.4-1.4 0.8-0.6 1.6-1.1 0.9-0.5 1.9-0.9 0.9-0.4 1.9-0.6 1-0.3 2.1-0.4 1-0.1 2-0.1 1.1 0 2.1 0.1 1.1 0.1 2.1 0.4 1 0.3 1.9 0.8 1 0.4 1.8 1.1 0.9 0.6 1.6 1.4 0.8 0.7 1.4 1.6 0.6 0.9 1 1.9 0.4 1 0.6 2 0.5-1 1-1.9 0.6-1 1.3-1.9 0.6-0.8 1.4-1.6 0.8-0.8 1.7-1.5 0.9-0.6 1.9-1.1 1.1-0.4 2.1-0.8 1.1-0.3 2.2-0.4 1.1-0.1 2.2-0.1 1.5-0.1 2.9 0.2 1.5 0.2 2.8 0.8 1.3 0.6 2.5 1.4 1.2 0.9 2.1 2 1 1.5 1.7 3.2 0.8 1.6 1.2 3.3 0.5 1.8 0.6 3.6 0.2 1.8 0 3.5v24.2h-4.5v-24.3q0.1-1.4 0-2.8-0.1-1.4-0.4-2.8-0.4-1.4-1-2.7-0.5-1.3-1.3-2.5-0.7-0.8-1.6-1.4-0.9-0.7-1.8-1.1-1-0.4-2.1-0.6-1-0.2-2.1-0.1-1.1-0.1-2.2 0.1-1.2 0.2-2.3 0.7-1 0.4-2 1.1-0.9 0.6-1.7 1.4-0.8 1-1.4 2-0.6 1-1 2.1-0.5 1-0.8 2.2-0.3 1.1-0.4 2.3-0.1 0.1-0.1 0.2 0 0.1 0 0.2 0 0.1 0 0.2 0 0.1 0.1 0.2v25.6h-4.2v-24.3q0.1-1.4 0-2.8-0.1-1.4-0.5-2.8-0.3-1.4-0.9-2.7-0.6-1.3-1.3-2.4-0.7-0.9-1.6-1.5-0.8-0.6-1.8-1.1-1-0.4-2.1-0.6-1-0.2-2.1-0.1-1.1 0-2.1 0.1-1.1 0.2-2.1 0.6-1 0.4-2 1-0.9 0.5-1.7 1.3-0.7 0.6-1.4 1.4-0.6 0.8-1.1 1.6-0.5 0.8-0.9 1.7-0.4 1-0.7 1.9v29.1h-4.6v-41.8z"/>
			<path class="s5" d="m1429.2 353.7q-1.8 0-3.6-0.4-1.8-0.3-3.5-1.1-1.7-0.7-3.2-1.8-1.5-1.1-2.7-2.5-1.3-1.4-2.3-3.1-1-1.8-1.6-3.6-0.7-1.9-1-3.8-0.3-2-0.3-4v-2.1q0-2 0.3-4 0.3-2 1-3.9 0.6-1.9 1.6-3.6 1-1.7 2.3-3.2 1.1-1.4 2.5-2.5 1.4-1.1 3-1.9 1.6-0.7 3.4-1.1 1.7-0.4 3.5-0.4 1.6-0.1 3.3 0.2 1.6 0.2 3.2 0.9 1.5 0.6 2.9 1.5 1.4 1 2.5 2.2 1.2 1.3 2.1 2.8 0.9 1.5 1.4 3.2 0.6 1.6 0.8 3.4 0.3 1.7 0.2 3.5v3.9h-29.1v1.1q-0.1 1.6 0.1 3.1 0.2 1.6 0.7 3.1 0.5 1.4 1.2 2.8 0.7 1.4 1.7 2.6 0.8 1.2 1.9 2.1 1.1 0.9 2.4 1.5 1.3 0.6 2.7 0.9 1.4 0.3 2.8 0.3 0.9 0 1.8-0.1 1 0 1.9-0.2 0.9-0.1 1.8-0.4 0.9-0.2 1.7-0.5 0.8-0.3 1.5-0.7 0.6-0.3 1.3-0.7 0.7-0.5 1.3-0.9 0.6-0.5 1.1-1.1l2 3.1q-0.6 0.7-1.3 1.2-0.7 0.6-1.4 1.1-0.8 0.5-1.6 0.9-0.8 0.4-1.6 0.7-1 0.4-2.1 0.7-1 0.3-2.1 0.4-1.1 0.2-2.1 0.3-1.1 0.1-2.2 0.1m-0.7-39.1q-1.2 0-2.4 0.2-1.1 0.3-2.2 0.8-1.2 0.5-2.1 1.2-1 0.8-1.8 1.7-0.9 1-1.6 2.1-0.7 1.2-1.2 2.4-0.5 1.2-0.8 2.5-0.3 1.3-0.4 2.7h24.3v-1.1q0-1.2-0.2-2.5-0.2-1.2-0.6-2.3-0.4-1.2-1-2.3-0.6-1-1.4-2-0.8-0.9-1.8-1.6-1-0.7-2.1-1.2-1.1-0.4-2.3-0.6-1.2-0.3-2.4-0.2"/>
			<path class="s5" d="m1478.8 342.1q0-0.7-0.1-1.4-0.2-0.7-0.5-1.3-0.3-0.7-0.7-1.3-0.5-0.6-1-1-1-0.8-2.1-1.3-1.1-0.6-2.2-1.1-1.2-0.4-2.4-0.7-1.2-0.3-2.4-0.5-1.5-0.2-2.9-0.6-1.4-0.4-2.8-0.9-1.4-0.6-2.7-1.2-1.3-0.7-2.6-1.5-0.8-0.7-1.5-1.5-0.7-0.9-1.1-1.8-0.5-1-0.7-2-0.2-1.1-0.2-2.2 0-1.1 0.2-2.3 0.3-1.1 0.8-2.2 0.5-1 1.3-1.9 0.7-0.9 1.7-1.6 1.1-0.9 2.4-1.5 1.2-0.7 2.6-1.1 1.3-0.4 2.7-0.6 1.4-0.2 2.8-0.1 1.5-0.1 3 0.1 1.5 0.2 2.9 0.6 1.4 0.5 2.8 1.1 1.3 0.7 2.5 1.6 1 0.9 1.8 1.9 0.7 1 1.2 2.2 0.6 1.2 0.8 2.5 0.2 1.2 0.1 2.5h-4.3q0-0.9-0.2-1.7-0.2-0.8-0.5-1.6-0.4-0.8-1-1.5-0.5-0.6-1.2-1.2-0.8-0.6-1.7-1.1-1-0.5-2-0.9-1-0.3-2-0.4-1-0.2-2.1-0.1-1-0.1-2 0-1 0.1-1.9 0.4-1 0.3-1.9 0.7-0.8 0.5-1.6 1.1-0.6 0.4-1.1 1-0.5 0.5-0.8 1.2-0.3 0.7-0.5 1.4-0.2 0.7-0.2 1.4 0 0.7 0.1 1.4 0.2 0.6 0.5 1.2 0.3 0.7 0.7 1.2 0.4 0.5 0.9 1 1 0.6 2 1.1 1.1 0.5 2.1 0.9 1.1 0.4 2.2 0.7 1.2 0.3 2.3 0.5 1.5 0.3 3 0.7 1.4 0.4 2.8 1 1.4 0.6 2.7 1.3 1.3 0.7 2.6 1.6 0.9 0.6 1.6 1.5 0.7 0.8 1.2 1.9 0.4 1 0.7 2.1 0.2 1 0.1 2.2 0.1 1.2-0.2 2.4-0.3 1.2-0.8 2.3-0.6 1.1-1.4 2-0.8 1-1.8 1.7-1.2 0.8-2.5 1.5-1.3 0.6-2.7 1-1.4 0.4-2.9 0.6-1.5 0.2-2.9 0.1-1.6 0.1-3.2-0.1-1.6-0.2-3.1-0.7-1.5-0.4-2.9-1.1-1.4-0.7-2.7-1.7-1-0.8-1.8-1.8-0.9-1-1.4-2.2-0.5-1.2-0.8-2.5-0.2-1.2-0.1-2.5h4.3q0 0.9 0.2 1.9 0.3 0.9 0.7 1.8 0.5 0.8 1.2 1.5 0.7 0.7 1.5 1.2 0.9 0.5 1.9 0.9 0.9 0.4 2 0.7 1 0.2 2 0.3 1 0.1 2.1 0.1 1 0.1 2.1-0.1 1-0.1 2-0.4 1-0.2 2-0.7 0.9-0.4 1.8-1 0.6-0.4 1.2-1 0.5-0.6 0.8-1.3 0.4-0.6 0.6-1.4 0.2-0.8 0.2-1.5"/>
			<path class="s6" d="m409.2 69.3c-6.1-38.1-52.6-61-107.9-50-8.2 1.8-16.2 4.3-24.1 7.3-7.8 3.1-15.3 6.8-22.6 11-7.2 4.3-14.1 9.1-20.6 14.4-6.5 5.4-12.6 11.2-18.2 17.5 12.5 1.1 24.7 4.1 36.3 8.8 11.6 4.7 22.5 11 32.2 18.9 9.7 7.9 18.2 17.1 25.3 27.5 7 10.3 12.4 21.7 16.1 33.6 66.5-12.8 89.3-46.3 83.5-89z"/>
			<path class="s6" d="m272.3 163.2h3.6c-3.4-7.7-8.1-14.8-13.8-21-5.8-6.2-12.5-11.5-20-15.5-7.4-4-15.5-6.7-23.8-8.1-8.4-1.3-16.9-1.3-25.3 0.1q0 0.7 0 1.3-0.1 0.7-0.1 1.3 0 0.7 0.1 1.3 0 0.7 0 1.4c5.8 29.1 38.1 39.2 79.3 39.2z"/>
			<path class="s6" d="m205 108.8c8.6 0 17.1 1.3 25.4 3.9 8.2 2.5 15.9 6.2 23 11.1 7.1 4.8 13.5 10.6 18.9 17.3 5.3 6.7 9.7 14.2 12.9 22.1 10-0.4 20.3-1.4 30.8-2.8h0.8c-3.6-11.5-9-22.3-16-32.1-6.9-9.9-15.4-18.6-25-25.8-9.6-7.3-20.3-13-31.6-17-11.4-4.1-23.3-6.3-35.4-6.7q-2.7 3.5-5 7.2-2.3 3.7-4.2 7.7-2 3.9-3.4 8.1-1.5 4.1-2.5 8.4 1.4-0.3 2.8-0.5 1.4-0.2 2.8-0.4 1.5-0.1 2.9-0.3 1.4-0.1 2.8-0.2z"/>
			<path class="s7" d="m138 226.7h-3.5c3.1 6.7 7.1 13 11.9 18.6 4.9 5.6 10.5 10.4 16.7 14.4 6.2 4 13 7.1 20.1 9.2 7.1 2.1 14.4 3.1 21.8 3.1q1.6 0.1 3.2 0.1 1.6-0.1 3.2-0.2 1.6-0.1 3.2-0.2 1.6-0.2 3.2-0.4 0-0.6 0-1.3 0-0.6-0.1-1.3-0.1-0.6-0.1-1.3-0.1-0.6-0.2-1.2c-6.1-29.3-38.4-39.5-79.4-39.5z"/>
			<path class="s7" d="m205 281.1c-8.6 0-17.1-1.3-25.3-3.8-8.2-2.6-16-6.3-23.1-11.1-7.1-4.8-13.4-10.7-18.8-17.4-5.4-6.7-9.7-14.1-12.9-22.1-10 0.5-20.3 1.4-30.8 2.7h-0.9c3.7 11.5 9.1 22.3 16 32.2 7 9.8 15.4 18.5 25 25.8 9.7 7.2 20.3 13 31.7 17 11.4 4 23.3 6.2 35.3 6.6q2.7-3.4 5.1-7.1 2.3-3.8 4.2-7.7 2-4 3.4-8.1 1.5-4.2 2.6-8.4-1.5 0.2-2.9 0.3-1.4 0.2-2.8 0.3-1.5 0.1-2.9 0.2-1.4 0.1-2.9 0.1"/>
			<path class="s7" d="m84.4 231.7c-66.2 13.1-89.4 46.3-83.5 89 6.1 38.1 52.6 61 107.8 49.9 8.2-1.8 16.3-4.2 24.1-7.3 7.8-3 15.4-6.7 22.7-10.9 7.2-4.3 14.1-9.1 20.6-14.4 6.5-5.3 12.6-11.2 18.1-17.4-12.4-1.1-24.7-4.1-36.3-8.8-11.6-4.6-22.5-11-32.2-18.9-9.7-7.9-18.2-17.1-25.2-27.5-7-10.4-12.4-21.7-16.1-33.7z"/>
			<path class="s8" d="m172.4 124.9c-6.6 3.1-12.8 7.1-18.3 11.9-5.5 4.8-10.3 10.4-14.3 16.6-3.9 6.2-7 12.9-9.1 19.9-2 7-3.1 14.3-3.1 21.7q0 1.5 0.1 3.1 0.1 1.6 0.2 3.1 0.1 1.6 0.3 3.2 0.2 1.5 0.5 3.1 3.1-0.7 6-1.8 2.9-1.2 5.6-2.7 2.7-1.6 5.2-3.6 2.4-1.9 4.5-4.3c12.3-12.8 19.9-40.4 22.4-70.2z"/>
			<path class="s8" d="m118.6 195c0-8.6 1.3-17.2 3.9-25.4 2.5-8.2 6.3-15.9 11.1-23 4.8-7.1 10.7-13.5 17.4-18.9 6.6-5.3 14.1-9.7 22.1-12.9q0.1-4 0.2-8 0-4.1-0.1-8.1 0-4-0.2-8.1-0.2-4-0.6-8c-12.1 3.5-23.5 8.9-33.9 16.1-10.4 7.1-19.5 15.9-27.1 26-7.6 10.1-13.5 21.3-17.5 33.2-4 12-6 24.5-6 37.1 0 0.4 0 0.9 0 1.4q3.4 2.6 7.2 4.7 3.7 2 7.8 3.5 4 1.5 8.2 2.4 4.2 0.9 8.5 1.2-0.2-1.6-0.4-3.3-0.2-1.6-0.4-3.3-0.1-1.7-0.2-3.3c0-1.1-0.1-2.2 0-3.3z"/>
			<path class="s8" d="m171.7 73.5q-0.5-6.2-1.6-12.3-1.2-6.1-3-12-1.8-6-4.3-11.6-2.4-5.7-5.5-11.1c-2.3-3.9-5.1-7.5-8.3-10.7-3.3-3.2-6.9-6-10.8-8.3-3.9-2.3-8-4.1-12.4-5.3-4.3-1.3-8.8-2-13.3-2.2-18.5 0-38.7 10.2-58 31.7-38.2 41.9-20.7 97.7 3.8 133.6q2.2 3.4 4.6 6.5 2.4 3.2 5 6.3 2.6 3 5.4 5.9 2.8 2.8 5.8 5.5c0.6-13.2 3.2-26.3 7.9-38.7 4.7-12.4 11.2-24 19.5-34.4 8.3-10.3 18.1-19.3 29.2-26.6 11.1-7.3 23.2-12.8 36-16.3z"/>
			<path class="s9" d="m238.4 316.5q0.5 6.2 1.6 12.3 1.1 6.1 3 12 1.8 5.9 4.3 11.6 2.4 5.7 5.6 11.1c2.3 3.8 5.1 7.4 8.3 10.6 3.2 3.2 6.8 6 10.7 8.3 3.9 2.3 8.1 4.1 12.4 5.4 4.4 1.2 8.9 2 13.4 2.1 18.1 0 38.6-10.3 58.3-31.8 38.2-41.8 20.7-97.7-3.8-133.6q-2.2-3.3-4.7-6.5-2.5-3.2-5.1-6.2-2.7-3-5.5-5.9-2.9-2.8-5.9-5.5c-0.6 13.2-3.2 26.3-7.9 38.7-4.6 12.4-11.2 24-19.5 34.4-8.3 10.3-18.1 19.3-29.2 26.6-11 7.3-23.2 12.9-36 16.4z"/>
			<path class="s9" d="m237.7 265.1c6.7-3.1 12.8-7.1 18.4-12 5.5-4.8 10.3-10.4 14.2-16.6 4-6.1 7-12.8 9.1-19.9 2.1-7 3.1-14.3 3.1-21.6q0-1.6-0.1-3.2-0.1-1.5-0.2-3.1-0.2-1.5-0.4-3.1-0.2-1.5-0.4-3.1-3.1 0.7-6 1.8-2.9 1.2-5.6 2.7-2.7 1.6-5.2 3.6-2.4 1.9-4.5 4.3c-12.2 12.9-19.9 40.4-22.5 70.2"/>
			<path class="s9" d="m291.5 195c0 8.6-1.3 17.1-3.8 25.3-2.5 8.2-6.3 16-11.1 23.1-4.8 7.1-10.7 13.5-17.4 18.8-6.7 5.4-14.1 9.8-22.1 12.9q-0.2 4.1-0.3 8.1-0.1 4 0 8.1 0 4 0.2 8.1 0.2 4 0.5 8c12.1-3.5 23.6-8.9 34-16.1 10.4-7.2 19.5-15.9 27.1-26 7.6-10.1 13.5-21.3 17.5-33.3 4-11.9 6.1-24.4 6.1-37v-1.4q-3.4-2.6-7.2-4.7-3.8-2.1-7.8-3.7-4-1.5-8.2-2.5-4.3-1-8.6-1.3 0.3 1.6 0.5 3.3 0.2 1.6 0.4 3.3 0.1 1.6 0.2 3.3 0.1 1.6 0.1 3.3"/>
		</g>
	</g>
</svg>