<svg xmlns="http://www.w3.org/2000/svg" viewBox="0 0 128 128" role="img" aria-labelledby="title desc">
  <title id="title">Asistente Futunet</title>
  <desc id="desc">Avatar de robot para el asistente de Futunet.</desc>
  <defs>
    <linearGradient id="shell" x1="0%" y1="0%" x2="100%" y2="100%">
      <stop offset="0%" stop-color="#ffffff"/>
      <stop offset="100%" stop-color="#eef4ff"/>
    </linearGradient>
    <linearGradient id="visor" x1="0%" y1="0%" x2="100%" y2="100%">
      <stop offset="0%" stop-color="#2f62ff"/>
      <stop offset="100%" stop-color="#123ba3"/>
    </linearGradient>
    <linearGradient id="face" x1="0%" y1="0%" x2="100%" y2="100%">
      <stop offset="0%" stop-color="#ff6a7e"/>
      <stop offset="100%" stop-color="#ff8ea0"/>
    </linearGradient>
  </defs>
  <circle cx="64" cy="64" r="60" fill="#ffffff"/>
  <circle cx="64" cy="64" r="56" fill="#f4f8ff"/>
  <rect x="32" y="34" width="64" height="52" rx="18" fill="url(#shell)" stroke="#d8e5ff" stroke-width="3"/>
  <rect x="38" y="42" width="52" height="28" rx="14" fill="url(#visor)"/>
  <circle cx="54" cy="56" r="6" fill="#7be9ff"/>
  <circle cx="74" cy="56" r="6" fill="#7be9ff"/>
  <rect x="48" y="74" width="32" height="7" rx="3.5" fill="url(#face)"/>
  <path d="M42 92c7 6 14 9 22 9s15-3 22-9" fill="none" stroke="#8fb3ff" stroke-linecap="round" stroke-width="6"/>
  <rect x="56" y="20" width="16" height="10" rx="5" fill="#ffd35a"/>
  <rect x="61" y="11" width="6" height="13" rx="3" fill="#b8cdfd"/>
  <circle cx="64" cy="11" r="6" fill="#ff5773"/>
  <rect x="21" y="50" width="10" height="22" rx="5" fill="#c8d8ff"/>
  <rect x="97" y="50" width="10" height="22" rx="5" fill="#c8d8ff"/>
  <circle cx="24" cy="48" r="4" fill="#4ad7a8"/>
  <circle cx="104" cy="48" r="4" fill="#4ad7a8"/>
</svg>
